<svg version="1.1" id="Layer_1" xmlns="http://www.w3.org/2000/svg" xmlns:xlink="http://www.w3.org/1999/xlink" x="0px" y="0px"
	 width="100%" viewBox="0 0 512 512" enable-background="new 0 0 512 512" xml:space="preserve">
<path fill="#000000" opacity="1.000000" stroke="none" 
	d="
M187.000000,513.000000 
	C151.645767,513.000000 116.291542,513.000000 80.327141,512.610352 
	C77.776825,511.960449 75.805115,511.841858 73.901466,511.417755 
	C56.665745,507.577820 42.462807,498.666687 30.938229,485.409668 
	C19.560331,472.321289 12.215450,457.107635 12.163686,439.780487 
	C11.839662,331.319519 11.983415,222.857056 12.067867,114.395172 
	C12.070871,110.536568 12.804229,106.617996 13.657615,102.831131 
	C17.247957,86.899155 25.102367,73.477829 37.111855,62.287903 
	C51.743237,48.655006 68.769463,41.213154 88.798996,41.028156 
	C104.125648,40.886593 119.454742,40.972507 134.782516,41.025120 
	C137.570267,41.034691 139.161453,40.724247 140.473450,37.376431 
	C145.044510,25.712561 152.280792,15.825360 163.653442,9.884403 
	C170.196991,6.466112 177.202454,3.932074 184.000000,0.999998 
	C199.354233,1.000000 214.708450,1.000000 230.659180,1.378610 
	C252.204254,5.892042 266.630615,18.113611 274.666748,37.661171 
	C275.987885,40.874805 277.490601,41.017246 280.033661,41.013306 
	C296.698853,40.987476 313.365051,40.907959 330.028687,41.071201 
	C333.731415,41.107471 337.483734,41.786079 341.113281,42.609398 
	C357.397095,46.303188 371.069275,54.412193 382.365662,66.788483 
	C395.336853,80.999672 402.721558,97.488655 402.930115,116.755959 
	C403.211487,142.750702 403.000000,168.750763 403.000000,194.748550 
	C403.000000,196.370163 403.000000,197.991776 403.000000,200.000000 
	C416.182983,200.000000 428.977417,200.270508 441.755310,199.926529 
	C455.472382,199.557251 467.568848,203.577133 478.400940,211.814575 
	C493.248047,223.105301 501.724915,237.943558 501.911499,256.689667 
	C502.231628,288.850372 501.851501,321.017731 502.088043,353.179901 
	C502.161621,363.179504 493.234192,372.050385 482.444855,372.240173 
	C470.470612,372.450836 461.812317,362.896362 461.902985,353.061035 
	C462.173370,323.732666 462.073608,294.399872 461.913208,265.069916 
	C461.891479,261.093323 461.311584,256.892761 459.926483,253.194260 
	C456.141113,243.086197 447.509125,240.090225 437.754242,240.060593 
	C392.591858,239.923416 347.428650,239.951721 302.266266,240.087387 
	C298.459869,240.098816 294.407745,240.723282 290.900177,242.133469 
	C280.929504,246.142120 278.064209,254.795486 278.047668,264.549133 
	C277.950592,321.710754 277.968536,378.872650 278.043915,436.034363 
	C278.052368,442.443695 278.699799,448.850739 278.990662,455.261566 
	C279.362671,463.461060 287.387756,471.708862 295.621613,471.966492 
	C301.276947,472.143433 306.942322,472.000000 312.603210,472.000000 
	C355.766205,471.999969 398.929810,471.877319 442.091614,472.102600 
	C450.818512,472.148163 460.050385,464.755920 461.151093,455.055969 
	C462.414948,443.918213 464.188171,434.833649 480.524384,432.830475 
	C489.954407,431.674164 500.262268,437.139771 501.874207,448.870300 
	C504.912659,470.982300 491.173401,496.149353 471.037079,505.899719 
	C464.968292,508.838379 458.360748,510.664368 452.000000,513.000000 
	C395.979095,513.000000 339.958221,513.000000 283.464050,512.596497 
	C282.894196,511.897186 282.850525,511.374573 282.693481,511.337952 
	C270.217865,508.427002 259.894836,501.852631 251.771912,492.147339 
	C243.509628,482.275543 238.090973,470.881042 238.063217,457.769073 
	C237.924866,392.444031 238.168655,327.117828 237.868774,261.793884 
	C237.802643,247.388123 241.279617,234.546646 250.012665,223.228699 
	C261.016418,208.967987 275.486206,200.536774 293.637329,200.116791 
	C315.123169,199.619659 336.629333,200.000000 358.126678,200.000000 
	C359.711853,200.000000 361.297058,200.000000 363.000000,200.000000 
	C363.000000,175.012238 363.175018,150.689499 362.918854,126.371315 
	C362.807281,115.779114 361.140198,105.348770 353.957214,96.837761 
	C345.980591,87.386375 336.205750,81.526138 323.000000,82.046516 
	C323.000000,102.119514 322.839203,121.756516 323.067444,141.389008 
	C323.182495,151.284103 314.322174,160.101151 304.232269,160.077133 
	C240.407150,159.925140 176.581299,159.925613 112.756187,160.076752 
	C102.683495,160.100601 93.805298,151.284424 93.932037,141.377365 
	C94.168617,122.882668 94.000000,104.382782 94.000000,85.885056 
	C94.000000,84.296120 94.000000,82.707176 94.000000,81.028015 
	C88.972168,81.887054 84.273300,81.982735 80.108459,83.522705 
	C61.098339,90.551811 52.126724,104.355797 52.134605,125.088791 
	C52.174114,228.992371 52.586746,332.896179 53.114246,436.798676 
	C53.171799,448.134918 59.306011,456.928894 67.996475,464.028107 
	C76.666664,471.110779 86.983978,472.827209 97.574081,472.919128 
	C125.235260,473.159180 152.900696,473.125336 180.562851,472.948700 
	C195.019516,472.856415 202.708832,485.556244 199.373856,499.232635 
	C197.660736,506.257935 192.328461,509.501892 187.000000,513.000000 
M180.921310,48.619705 
	C179.278244,53.262562 177.352493,57.827522 176.047440,62.563522 
	C172.718643,74.643608 167.059875,81.799072 152.883942,81.055107 
	C146.647842,80.727837 140.380280,81.000000 134.313782,81.000000 
	C134.313782,94.378517 134.313782,107.110214 134.313782,119.732437 
	C183.999649,119.732437 233.371307,119.732437 282.741150,119.732437 
	C282.741150,106.732887 282.741150,94.002594 282.741150,80.999985 
	C274.189087,80.999985 265.887024,81.190887 257.598877,80.934097 
	C251.900757,80.757561 246.616501,78.762489 243.952194,73.374428 
	C241.501236,68.417778 239.483337,63.137119 238.102570,57.785583 
	C235.732040,48.598057 229.375381,41.893436 221.578506,41.916924 
	C213.511398,41.941223 205.426514,40.873932 197.379440,41.152481 
	C191.425476,41.358582 185.337265,42.543495 180.921310,48.619705 
z"/>
<path fill="#FFFFFF" opacity="1.000000" stroke="none" 
	d="
M187.468658,513.000000 
	C192.328461,509.501892 197.660736,506.257935 199.373856,499.232635 
	C202.708832,485.556244 195.019516,472.856415 180.562851,472.948700 
	C152.900696,473.125336 125.235260,473.159180 97.574081,472.919128 
	C86.983978,472.827209 76.666664,471.110779 67.996475,464.028107 
	C59.306011,456.928894 53.171799,448.134918 53.114246,436.798676 
	C52.586746,332.896179 52.174114,228.992371 52.134605,125.088791 
	C52.126724,104.355797 61.098339,90.551811 80.108459,83.522705 
	C84.273300,81.982735 88.972168,81.887054 94.000000,81.028015 
	C94.000000,82.707176 94.000000,84.296120 94.000000,85.885056 
	C94.000000,104.382782 94.168617,122.882668 93.932037,141.377365 
	C93.805298,151.284424 102.683495,160.100601 112.756187,160.076752 
	C176.581299,159.925613 240.407150,159.925140 304.232269,160.077133 
	C314.322174,160.101151 323.182495,151.284103 323.067444,141.389008 
	C322.839203,121.756516 323.000000,102.119514 323.000000,82.046516 
	C336.205750,81.526138 345.980591,87.386375 353.957214,96.837761 
	C361.140198,105.348770 362.807281,115.779114 362.918854,126.371315 
	C363.175018,150.689499 363.000000,175.012238 363.000000,200.000000 
	C361.297058,200.000000 359.711853,200.000000 358.126678,200.000000 
	C336.629333,200.000000 315.123169,199.619659 293.637329,200.116791 
	C275.486206,200.536774 261.016418,208.967987 250.012665,223.228699 
	C241.279617,234.546646 237.802643,247.388123 237.868774,261.793884 
	C238.168655,327.117828 237.924866,392.444031 238.063217,457.769073 
	C238.090973,470.881042 243.509628,482.275543 251.771912,492.147339 
	C259.894836,501.852631 270.217865,508.427002 282.693481,511.337952 
	C282.850525,511.374573 282.894196,511.897186 282.995422,512.596497 
	C251.312439,513.000000 219.624878,513.000000 187.468658,513.000000 
z"/>
<path fill="#FFFFFF" opacity="1.000000" stroke="none" 
	d="
M452.468658,513.000000 
	C458.360748,510.664368 464.968292,508.838379 471.037079,505.899719 
	C491.173401,496.149353 504.912659,470.982300 501.874207,448.870300 
	C500.262268,437.139771 489.954407,431.674164 480.524384,432.830475 
	C464.188171,434.833649 462.414948,443.918213 461.151093,455.055969 
	C460.050385,464.755920 450.818512,472.148163 442.091614,472.102600 
	C398.929810,471.877319 355.766205,471.999969 312.603210,472.000000 
	C306.942322,472.000000 301.276947,472.143433 295.621613,471.966492 
	C287.387756,471.708862 279.362671,463.461060 278.990662,455.261566 
	C278.699799,448.850739 278.052368,442.443695 278.043915,436.034363 
	C277.968536,378.872650 277.950592,321.710754 278.047668,264.549133 
	C278.064209,254.795486 280.929504,246.142120 290.900177,242.133469 
	C294.407745,240.723282 298.459869,240.098816 302.266266,240.087387 
	C347.428650,239.951721 392.591858,239.923416 437.754242,240.060593 
	C447.509125,240.090225 456.141113,243.086197 459.926483,253.194260 
	C461.311584,256.892761 461.891479,261.093323 461.913208,265.069916 
	C462.073608,294.399872 462.173370,323.732666 461.902985,353.061035 
	C461.812317,362.896362 470.470612,372.450836 482.444855,372.240173 
	C493.234192,372.050385 502.161621,363.179504 502.088043,353.179901 
	C501.851501,321.017731 502.231628,288.850372 501.911499,256.689667 
	C501.724915,237.943558 493.248047,223.105301 478.400940,211.814575 
	C467.568848,203.577133 455.472382,199.557251 441.755310,199.926529 
	C428.977417,200.270508 416.182983,200.000000 403.000000,200.000000 
	C403.000000,197.991776 403.000000,196.370163 403.000000,194.748550 
	C403.000000,168.750763 403.211487,142.750702 402.930115,116.755959 
	C402.721558,97.488655 395.336853,80.999672 382.365662,66.788483 
	C371.069275,54.412193 357.397095,46.303188 341.113281,42.609398 
	C337.483734,41.786079 333.731415,41.107471 330.028687,41.071201 
	C313.365051,40.907959 296.698853,40.987476 280.033661,41.013306 
	C277.490601,41.017246 275.987885,40.874805 274.666748,37.661171 
	C266.630615,18.113611 252.204254,5.892042 231.127838,1.378610 
	C324.951874,1.000000 418.903778,1.000000 512.927856,1.000000 
	C512.927856,171.666656 512.927856,342.333313 512.927856,513.000000 
	C492.916840,513.000000 472.927094,513.000000 452.468658,513.000000 
M420.123444,290.632843 
	C416.536469,283.042206 410.387421,279.935638 402.172180,279.969482 
	C380.367920,280.059326 358.563019,279.988190 336.758453,280.024231 
	C335.149109,280.026886 333.485168,280.172546 331.940399,280.594818 
	C322.936676,283.056213 317.134338,290.371307 317.925751,302.582520 
	C318.507324,311.555847 326.423370,319.939606 335.422485,319.972076 
	C358.558380,320.055603 381.696472,320.147247 404.829803,319.890442 
	C410.226715,319.830566 414.721405,317.302551 418.208771,312.563690 
	C423.246399,305.718170 422.587280,298.625641 420.123444,290.632843 
M385.499939,390.000000 
	C391.332672,390.000000 397.177032,389.764557 402.995575,390.051941 
	C413.236664,390.557678 421.776520,381.254333 422.214813,371.132751 
	C422.776581,358.159821 412.699097,349.803772 403.244232,349.915924 
	C381.082916,350.178864 358.914032,350.187561 336.752960,349.913666 
	C327.009338,349.793213 317.693420,358.596802 317.754303,370.127747 
	C317.813660,381.367065 326.980072,390.321014 337.006866,390.094910 
	C352.830566,389.738098 368.668243,390.000000 385.499939,390.000000 
z"/>
<path fill="#FFFFFF" opacity="1.000000" stroke="none" 
	d="
M183.531342,0.999998 
	C177.202454,3.932074 170.196991,6.466112 163.653442,9.884403 
	C152.280792,15.825360 145.044510,25.712561 140.473450,37.376431 
	C139.161453,40.724247 137.570267,41.034691 134.782516,41.025120 
	C119.454742,40.972507 104.125648,40.886593 88.798996,41.028156 
	C68.769463,41.213154 51.743237,48.655006 37.111855,62.287903 
	C25.102367,73.477829 17.247957,86.899155 13.657615,102.831131 
	C12.804229,106.617996 12.070871,110.536568 12.067867,114.395172 
	C11.983415,222.857056 11.839662,331.319519 12.163686,439.780487 
	C12.215450,457.107635 19.560331,472.321289 30.938229,485.409668 
	C42.462807,498.666687 56.665745,507.577820 73.901466,511.417755 
	C75.805115,511.841858 77.776825,511.960449 79.858482,512.610352 
	C53.681557,513.000000 27.363115,513.000000 1.022336,513.000000 
	C1.022336,342.444733 1.022336,171.889465 1.022336,1.000000 
	C61.687153,1.000000 122.374916,1.000000 183.531342,0.999998 
z"/>
<path fill="#FFFFFF" opacity="1.000000" stroke="none" 
	d="
M181.167938,48.337769 
	C185.337265,42.543495 191.425476,41.358582 197.379440,41.152481 
	C205.426514,40.873932 213.511398,41.941223 221.578506,41.916924 
	C229.375381,41.893436 235.732040,48.598057 238.102570,57.785583 
	C239.483337,63.137119 241.501236,68.417778 243.952194,73.374428 
	C246.616501,78.762489 251.900757,80.757561 257.598877,80.934097 
	C265.887024,81.190887 274.189087,80.999985 282.741150,80.999985 
	C282.741150,94.002594 282.741150,106.732887 282.741150,119.732437 
	C233.371307,119.732437 183.999649,119.732437 134.313782,119.732437 
	C134.313782,107.110214 134.313782,94.378517 134.313782,81.000000 
	C140.380280,81.000000 146.647842,80.727837 152.883942,81.055107 
	C167.059875,81.799072 172.718643,74.643608 176.047440,62.563522 
	C177.352493,57.827522 179.278244,53.262562 181.167938,48.337769 
z"/>
<path fill="#000000" opacity="1.000000" stroke="none" 
	d="
M420.421448,290.911865 
	C422.587280,298.625641 423.246399,305.718170 418.208771,312.563690 
	C414.721405,317.302551 410.226715,319.830566 404.829803,319.890442 
	C381.696472,320.147247 358.558380,320.055603 335.422485,319.972076 
	C326.423370,319.939606 318.507324,311.555847 317.925751,302.582520 
	C317.134338,290.371307 322.936676,283.056213 331.940399,280.594818 
	C333.485168,280.172546 335.149109,280.026886 336.758453,280.024231 
	C358.563019,279.988190 380.367920,280.059326 402.172180,279.969482 
	C410.387421,279.935638 416.536469,283.042206 420.421448,290.911865 
z"/>
<path fill="#000000" opacity="1.000000" stroke="none" 
	d="
M384.999969,390.000000 
	C368.668243,390.000000 352.830566,389.738098 337.006866,390.094910 
	C326.980072,390.321014 317.813660,381.367065 317.754303,370.127747 
	C317.693420,358.596802 327.009338,349.793213 336.752960,349.913666 
	C358.914032,350.187561 381.082916,350.178864 403.244232,349.915924 
	C412.699097,349.803772 422.776581,358.159821 422.214813,371.132751 
	C421.776520,381.254333 413.236664,390.557678 402.995575,390.051941 
	C397.177032,389.764557 391.332672,390.000000 384.999969,390.000000 
z"/>
</svg>